<?xml version="1.0" encoding="UTF-8"?>
<svg xmlns="http://www.w3.org/2000/svg" width="60" height="60" viewBox="0 0 60 60" fill="none">
  <circle cx="29.6206" cy="29.6206" r="29.6206" fill="white"></circle>
  <path d="M42.7419 50.03C39.6071 50.03 37.0547 48.1456 37.0547 45.7645C37.0547 43.3834 39.5728 41.4819 42.7419 41.4819C45.9111 41.4819 48.4121 43.3834 48.4121 45.7645C48.4121 48.1456 45.8254 50.03 42.7419 50.03Z" stroke="#E6456A" stroke-linecap="round" stroke-linejoin="round"></path>
  <path d="M39.763 29.2339C38.1527 22.5188 29.9131 10.9901 29.4848 10.3905C29.4219 10.3086 29.3394 10.2438 29.245 10.2021C29.1546 10.1568 29.0549 10.1333 28.9538 10.1333C28.8527 10.1333 28.753 10.1568 28.6625 10.2021C28.5681 10.2438 28.4856 10.3086 28.4227 10.3905C28.0116 10.9387 19.7376 22.3817 18.1445 29.2339" stroke="#E6456A" stroke-linecap="round" stroke-linejoin="round"></path>
  <path d="M18.332 34.6127C19.031 36.909 20.4405 38.9243 22.3577 40.3685C24.2509 41.8024 26.5608 42.5784 28.9357 42.5784C31.3106 42.5784 33.6205 41.8024 35.5137 40.3685C37.4309 38.9243 38.8404 36.909 39.5394 34.6127" stroke="#E6456A" stroke-linecap="round" stroke-linejoin="round"></path>
  <path d="M42.762 31.9577H32.4838L30.6166 36.6857L28.6637 24.0436L26.4197 33.7735L24.3126 31.8207H16.3984" stroke="#E6456A" stroke-linecap="round" stroke-linejoin="round"></path>
  <path d="M17.3733 31.8204H16.2427C15.3361 31.8242 14.4393 32.0078 13.6042 32.3607C12.7691 32.7136 12.0123 33.2287 11.3777 33.8761C10.0814 35.2013 9.35547 36.9815 9.35547 38.8353C9.35547 40.6892 10.0814 42.4693 11.3777 43.7946C12.0123 44.442 12.7691 44.9571 13.6042 45.3099C14.4393 45.6628 15.3361 45.8464 16.2427 45.8502H34.6064" stroke="#E6456A" stroke-linecap="round" stroke-linejoin="round"></path>
  <path d="M37.037 47.2206H35.9578C35.8322 47.2219 35.7078 47.1966 35.5926 47.1464C35.4775 47.0962 35.3743 47.0222 35.2897 46.9293C35.2023 46.8415 35.1332 46.7372 35.0861 46.6226C35.0391 46.508 35.0151 46.3852 35.0156 46.2613V45.302C35.0174 45.0472 35.1153 44.8024 35.2897 44.6167C35.3776 44.5294 35.4818 44.4602 35.5965 44.4132C35.7111 44.3661 35.8339 44.3422 35.9578 44.3427H37.0028" stroke="#E6456A" stroke-linecap="round" stroke-linejoin="round"></path>
</svg>
