<?xml version="1.0" encoding="UTF-8"?>
<svg xmlns="http://www.w3.org/2000/svg" width="60" height="60" viewBox="0 0 60 60" fill="none">
  <circle cx="29.6206" cy="29.6206" r="29.6206" fill="white"></circle>
  <path d="M18.4928 41.868H17.3969C17.2774 41.6737 17.1328 41.5133 17.0156 41.3848C16.936 41.297 16.854 41.2069 16.8199 41.1509C16.7812 41.0872 16.7379 40.9675 16.697 40.8522C16.6378 40.6896 16.5684 40.4986 16.4625 40.3141L17.0122 39.3959C17.2296 39.0324 17.101 38.5679 16.7243 38.3581C16.3476 38.1484 15.8662 38.2725 15.6489 38.636L15.0969 39.5574C14.8864 39.5618 14.6895 39.5969 14.52 39.6277C14.3902 39.6507 14.2559 39.6749 14.1683 39.6749C14.0807 39.6749 13.9464 39.6507 13.8167 39.6277C13.6471 39.5969 13.4502 39.5629 13.2397 39.5574L12.6878 38.636C12.4704 38.2725 11.989 38.1484 11.6124 38.3581C11.2357 38.5679 11.1071 39.0324 11.3244 39.3959L11.8741 40.3141C11.7683 40.4997 11.6988 40.6896 11.6397 40.8522C11.5976 40.9675 11.5543 41.0872 11.5168 41.1509C11.4826 41.2069 11.4007 41.2981 11.321 41.3848C11.2049 41.5133 11.0593 41.6737 10.9398 41.868H9.84389C9.40917 41.868 9.05638 42.2085 9.05638 42.628C9.05638 43.0475 9.40917 43.388 9.84389 43.388H10.9398C11.0593 43.5823 11.2038 43.7427 11.321 43.8712C11.4007 43.959 11.4826 44.0491 11.5168 44.1051C11.5555 44.1688 11.5987 44.2885 11.6397 44.4038C11.6988 44.5664 11.7683 44.7574 11.8741 44.9419L11.3244 45.8601C11.1071 46.2236 11.2357 46.6881 11.6124 46.8979C11.7364 46.9671 11.8718 47 12.005 47C12.277 47 12.5421 46.8638 12.6878 46.62L13.2397 45.6986C13.4502 45.6942 13.6471 45.6591 13.8167 45.6283C13.9464 45.6053 14.0807 45.5811 14.1683 45.5811C14.2559 45.5811 14.3902 45.6053 14.52 45.6283C14.6895 45.6591 14.8864 45.6931 15.0969 45.6986L15.6489 46.62C15.7945 46.8638 16.0597 47 16.3317 47C16.4648 47 16.6002 46.9671 16.7243 46.8979C17.101 46.6881 17.2296 46.2236 17.0122 45.8601L16.4625 44.9419C16.5684 44.7563 16.6378 44.5664 16.697 44.4038C16.7391 44.2885 16.7823 44.1688 16.8199 44.1051C16.854 44.0491 16.936 43.9579 17.0156 43.8712C17.1317 43.7427 17.2774 43.5823 17.3969 43.388H18.4928C18.9275 43.388 19.2803 43.0475 19.2803 42.628C19.2803 42.2085 18.9275 41.868 18.4928 41.868ZM15.831 42.8696C15.708 43.0058 15.5681 43.1595 15.4577 43.344C15.345 43.5329 15.2733 43.7295 15.2107 43.903C15.18 43.9876 15.1379 44.1062 15.1015 44.1787C15.0196 44.1721 14.8966 44.1501 14.8079 44.1348C14.6178 44.1007 14.4016 44.0623 14.1695 44.0623C13.9373 44.0623 13.7222 44.1007 13.531 44.1348C13.4423 44.1512 13.3182 44.1732 13.2374 44.1787C13.201 44.1062 13.1589 43.9887 13.1282 43.903C13.0656 43.7295 12.9939 43.5318 12.8812 43.344C12.7708 43.1595 12.6309 43.0058 12.508 42.8696C12.442 42.7971 12.3486 42.6939 12.3043 42.6269C12.3486 42.561 12.442 42.4578 12.508 42.3842C12.6309 42.248 12.7708 42.0943 12.8812 41.9098C12.9939 41.7209 13.0656 41.5243 13.1282 41.3508C13.1589 41.2662 13.201 41.1476 13.2374 41.0751C13.3194 41.0817 13.4423 41.1037 13.531 41.1191C13.7211 41.1531 13.9373 41.1915 14.1695 41.1915C14.4016 41.1915 14.6167 41.1531 14.8079 41.1191C14.8966 41.1037 15.0207 41.0806 15.1015 41.0751C15.1379 41.1476 15.18 41.2651 15.2107 41.3508C15.2733 41.5243 15.345 41.722 15.4577 41.9109C15.5681 42.0954 15.708 42.2491 15.831 42.3853C15.897 42.4578 15.9903 42.561 16.0347 42.628C15.9903 42.6939 15.897 42.7971 15.831 42.8707V42.8696ZM50.7189 14.171C50.0053 12.6423 48.1367 11.9592 46.5538 12.6478L32.1944 18.889C31.4274 19.2228 30.8401 19.8246 30.542 20.5835C30.2438 21.3424 30.27 22.1682 30.616 22.9084C31.1406 24.033 32.2911 24.6996 33.4928 24.6996C33.9242 24.6996 34.3634 24.614 34.7822 24.4317L49.1416 18.1905C49.9086 17.8566 50.4958 17.2548 50.794 16.4959C51.0921 15.7371 51.066 14.9112 50.72 14.171H50.7189ZM49.3191 15.9578C49.1701 16.3378 48.8764 16.6387 48.4929 16.8045L34.1335 23.0457C33.3415 23.3895 32.4072 23.0479 32.051 22.2835C31.878 21.9134 31.8655 21.5005 32.0146 21.1205C32.1637 20.7406 32.4573 20.4396 32.8408 20.2738L47.2002 14.0326C47.4096 13.9415 47.6292 13.8987 47.8443 13.8987C48.4451 13.8987 49.0198 14.2325 49.2827 14.7948C49.4557 15.1649 49.4682 15.5778 49.3191 15.9578V15.9578ZM20.0575 17.1318H21.1534C21.2729 17.3262 21.4174 17.4865 21.5347 17.615C21.6143 17.7029 21.6963 17.7929 21.7304 17.849C21.7691 17.9126 21.8123 18.0324 21.8533 18.1477C21.9125 18.3102 21.9819 18.5013 22.0877 18.6858L21.5381 19.6039C21.3207 19.9674 21.4493 20.432 21.826 20.6417C21.95 20.7109 22.0854 20.7438 22.2186 20.7438C22.4906 20.7438 22.7557 20.6077 22.9014 20.3639L23.4533 19.4425C23.6639 19.4381 23.8607 19.4029 24.0303 19.3722C24.16 19.3491 24.2943 19.325 24.3819 19.325C24.4696 19.325 24.6039 19.3491 24.7336 19.3722C24.9032 19.4029 25.1 19.437 25.3106 19.4425L25.8625 20.3639C26.0082 20.6077 26.2733 20.7438 26.5453 20.7438C26.6785 20.7438 26.8139 20.7109 26.9379 20.6417C27.3146 20.432 27.4432 19.9674 27.2258 19.6039L26.6762 18.6858C26.782 18.5002 26.8514 18.3102 26.9106 18.1477C26.9527 18.0324 26.996 17.9126 27.0335 17.849C27.0676 17.7929 27.1496 17.7018 27.2292 17.615C27.3453 17.4865 27.491 17.3262 27.6105 17.1318H28.7064C29.1411 17.1318 29.4939 16.7914 29.4939 16.3718C29.4939 15.9523 29.1411 15.6119 28.7064 15.6119H27.6105C27.491 15.4175 27.3465 15.2572 27.2292 15.1287C27.1496 15.0408 27.0676 14.9508 27.0335 14.8947C26.9948 14.8311 26.9516 14.7113 26.9106 14.596C26.8514 14.4335 26.782 14.2424 26.6762 14.0579L27.2258 13.1398C27.4432 12.7763 27.3146 12.3117 26.9379 12.102C26.5612 11.8922 26.0799 12.0163 25.8625 12.3798L25.3106 13.3012C25.1 13.3056 24.9032 13.3408 24.7336 13.3715C24.6039 13.3946 24.4696 13.4187 24.3819 13.4187C24.2943 13.4187 24.16 13.3946 24.0303 13.3715C23.8607 13.3408 23.6639 13.3067 23.4533 13.3012L22.9014 12.3798C22.684 12.0163 22.2027 11.8922 21.826 12.102C21.4493 12.3117 21.3207 12.7763 21.5381 13.1398L22.0877 14.0579C21.9819 14.2435 21.9125 14.4335 21.8533 14.596C21.8112 14.7113 21.7691 14.8311 21.7304 14.8947C21.6963 14.9508 21.6143 15.0419 21.5347 15.1287C21.4186 15.2572 21.2729 15.4175 21.1534 15.6119H20.0575C19.6228 15.6119 19.27 15.9523 19.27 16.3718C19.27 16.7914 19.6228 17.1318 20.0575 17.1318V17.1318ZM22.7193 16.1291C22.8422 15.993 22.9822 15.8392 23.0926 15.6547C23.2052 15.4658 23.2769 15.2692 23.3395 15.0957C23.3703 15.0112 23.4124 14.8926 23.4488 14.8201C23.5307 14.8267 23.6536 14.8486 23.7424 14.864C23.9324 14.898 24.1487 14.9365 24.3808 14.9365C24.613 14.9365 24.828 14.898 25.0192 14.864C25.108 14.8475 25.232 14.8256 25.3128 14.8201C25.3493 14.8926 25.3914 15.0101 25.4221 15.0957C25.4847 15.2692 25.5564 15.4669 25.669 15.6547C25.7794 15.8392 25.9194 15.993 26.0423 16.1291C26.1083 16.2016 26.2016 16.3049 26.246 16.3718C26.2016 16.4377 26.1083 16.541 26.0423 16.6146C25.9194 16.7507 25.7794 16.9045 25.669 17.089C25.5564 17.2779 25.4847 17.4745 25.4221 17.6491C25.3914 17.7336 25.3493 17.8522 25.3128 17.9247C25.2309 17.9181 25.108 17.8962 25.0192 17.8808C24.8292 17.8468 24.613 17.8083 24.3808 17.8083C24.1487 17.8083 23.9336 17.8468 23.7424 17.8808C23.6536 17.8973 23.5296 17.9192 23.4488 17.9247C23.4124 17.8522 23.3703 17.7347 23.3395 17.6491C23.2769 17.4756 23.2052 17.2779 23.0926 17.0901C22.9822 16.9056 22.8422 16.7518 22.7193 16.6157C22.6533 16.5432 22.56 16.4399 22.5156 16.3729C22.56 16.3071 22.6533 16.2038 22.7193 16.1302V16.1291ZM39.769 37.6992C39.3524 37.5762 38.9132 37.8035 38.7857 38.2044C38.7436 38.3373 38.3453 38.7667 37.0252 39.1532C35.7905 39.5146 34.1802 39.7133 32.488 39.7133C30.7958 39.7133 29.1741 39.5135 27.9371 39.1499C26.6193 38.7623 26.2289 38.3362 26.1902 38.2033C26.0708 37.8002 25.6349 37.5663 25.2161 37.6827C24.7985 37.798 24.5561 38.2198 24.6767 38.6228C25.2127 40.4261 28.9863 41.2333 32.488 41.2333C35.9896 41.2333 39.728 40.4338 40.2913 38.6481C40.4176 38.2461 40.1832 37.8222 39.7678 37.6992H39.769ZM49.475 26.9554H48.3791C48.2596 26.761 48.1151 26.6006 47.9979 26.4721C47.9182 26.3843 47.8363 26.2942 47.8022 26.2382C47.7635 26.1745 47.7202 26.0548 47.6793 25.9395C47.6201 25.777 47.5507 25.5859 47.4448 25.4014L47.9945 24.4833C48.2118 24.1198 48.0832 23.6552 47.7066 23.4455C47.3299 23.2357 46.8485 23.3598 46.6312 23.7233L46.0792 24.6447C45.8687 24.6491 45.6718 24.6842 45.5022 24.715C45.3725 24.7381 45.2382 24.7622 45.1506 24.7622C45.063 24.7622 44.9287 24.7381 44.799 24.715C44.6294 24.6842 44.4325 24.6502 44.222 24.6447L43.6701 23.7233C43.4527 23.3598 42.9713 23.2357 42.5946 23.4455C42.218 23.6552 42.0894 24.1198 42.3067 24.4833L42.8564 25.4014C42.7505 25.587 42.6811 25.777 42.6219 25.9395C42.5798 26.0548 42.5377 26.1745 42.499 26.2382C42.4649 26.2942 42.383 26.3854 42.3033 26.4721C42.1872 26.6006 42.0416 26.761 41.9221 26.9554H40.8262C40.3915 26.9554 40.0387 27.2958 40.0387 27.7153C40.0387 28.1348 40.3915 28.4753 40.8262 28.4753H41.9221C42.0416 28.6697 42.1861 28.83 42.3033 28.9585C42.383 29.0464 42.4649 29.1364 42.499 29.1924C42.5377 29.2561 42.581 29.3758 42.6219 29.4911C42.6811 29.6537 42.7505 29.8448 42.8564 30.0293L42.3067 30.9474C42.0894 31.3109 42.218 31.7754 42.5946 31.9852C42.7187 32.0544 42.8541 32.0873 42.9872 32.0873C43.2592 32.0873 43.5244 31.9511 43.6701 31.7073L44.222 30.7859C44.4325 30.7815 44.6294 30.7464 44.799 30.7157C44.9287 30.6926 45.063 30.6684 45.1506 30.6684C45.2382 30.6684 45.3725 30.6926 45.5022 30.7157C45.6718 30.7464 45.8687 30.7804 46.0792 30.7859L46.6312 31.7073C46.7768 31.9511 47.042 32.0873 47.314 32.0873C47.4471 32.0873 47.5825 32.0544 47.7066 31.9852C48.0832 31.7754 48.2118 31.3109 47.9945 30.9474L47.4448 30.0293C47.5507 29.8437 47.6201 29.6537 47.6793 29.4911C47.7214 29.3758 47.7635 29.2561 47.8022 29.1924C47.8363 29.1364 47.9182 29.0453 47.9979 28.9585C48.114 28.83 48.2596 28.6697 48.3791 28.4753H49.475C49.9098 28.4753 50.2625 28.1348 50.2625 27.7153C50.2625 27.2958 49.9098 26.9554 49.475 26.9554V26.9554ZM46.8132 27.958C46.6903 28.0942 46.5504 28.248 46.44 28.4325C46.3273 28.6214 46.2556 28.8179 46.193 28.9914C46.1623 29.076 46.1202 29.1946 46.0838 29.2671C46.0018 29.2605 45.8789 29.2386 45.7902 29.2232C45.6001 29.1891 45.3839 29.1507 45.1517 29.1507C44.9196 29.1507 44.7045 29.1891 44.5133 29.2232C44.4246 29.2386 44.3005 29.2616 44.2197 29.2671C44.1833 29.1946 44.1412 29.0771 44.1105 28.9914C44.0479 28.8179 43.9762 28.6203 43.8635 28.4325C43.7531 28.248 43.6132 28.0942 43.4902 27.958C43.4242 27.8855 43.3309 27.7823 43.2865 27.7153C43.3309 27.6494 43.4242 27.5462 43.4902 27.4726C43.6132 27.3364 43.7531 27.1827 43.8635 26.9982C43.9762 26.8093 44.0479 26.6127 44.1105 26.4392C44.1412 26.3546 44.1833 26.236 44.2197 26.1635C44.3017 26.1701 44.4246 26.1921 44.5133 26.2075C44.7034 26.2415 44.9196 26.28 45.1517 26.28C45.3839 26.28 45.599 26.2415 45.7902 26.2075C45.8789 26.191 46.003 26.169 46.0838 26.1635C46.1202 26.236 46.1623 26.3535 46.193 26.4392C46.2556 26.6127 46.3273 26.8104 46.44 26.9982C46.5504 27.1827 46.6903 27.3364 46.8132 27.4726C46.8792 27.5451 46.9726 27.6483 47.0169 27.7153C46.9726 27.7812 46.8792 27.8844 46.8132 27.958V27.958ZM38.7459 32.9769C37.0161 32.4201 34.7947 32.1137 32.4891 32.1137C31.6868 32.1137 30.8993 32.1499 30.1334 32.2224C30.2598 31.648 30.3007 30.9254 30.0902 30.1116C29.7511 28.7971 28.8418 27.5495 27.3874 26.403C25.9763 25.2894 24.0121 24.2417 21.8578 23.451C19.7036 22.6602 17.5141 22.1847 15.6921 22.1111C13.8155 22.0354 12.277 22.3857 11.1185 23.15C10.0715 23.8408 9.55939 24.7293 9.31471 25.352C9.0689 25.9747 8.84131 26.9663 9.14743 28.1546C9.48656 29.4692 10.3958 30.7167 11.8502 31.8633C13.2613 32.9769 15.2255 34.0246 17.3798 34.8153C18.9627 35.3962 20.5651 35.8059 22.0263 36.0123C21.5802 36.8239 21.4652 37.6048 21.4652 38.1934C21.4652 38.86 21.6166 39.8649 22.3404 40.8698C23.1415 41.9822 24.4502 42.8367 26.2324 43.4099C27.9621 43.9667 30.1835 44.2731 32.4891 44.2731C34.7947 44.2731 37.0161 43.9667 38.7459 43.4099C40.528 42.8367 41.8379 41.9822 42.6379 40.8698C43.3617 39.8649 43.513 38.86 43.513 38.1934C43.513 37.5268 43.3617 36.5219 42.6379 35.5171C41.8367 34.4046 40.528 33.5501 38.7459 32.9769V32.9769ZM17.9408 33.3942C15.9402 32.6606 14.1319 31.6986 12.8471 30.686C10.2263 28.6192 10.4311 26.795 10.7873 25.8923C11.1276 25.028 12.1518 23.6212 15.2039 23.6212C15.3405 23.6212 15.4816 23.6245 15.6273 23.63C17.2842 23.697 19.2985 24.1373 21.2991 24.872C23.2997 25.6057 25.108 26.5677 26.3928 27.5802C29.0136 29.6471 28.8088 31.4712 28.4526 32.374C28.1123 33.2383 27.0881 34.6451 24.036 34.6451C23.8994 34.6451 23.7583 34.6418 23.6127 34.6363C21.9557 34.5693 19.9414 34.1289 17.9408 33.3942V33.3942ZM38.2486 41.968C36.6759 42.4743 34.6309 42.7532 32.4903 42.7532C30.3497 42.7532 28.3047 42.4743 26.7319 41.968C23.5205 40.9346 23.0414 39.1598 23.0414 38.1934C23.0414 37.6652 23.1813 36.9052 23.8095 36.1617C23.8869 36.1628 23.9632 36.1639 24.0394 36.1639C25.6941 36.1639 27.0654 35.8114 28.1214 35.1151C28.7155 34.723 29.1377 34.2673 29.4358 33.8324C30.4111 33.7006 31.4365 33.6336 32.4914 33.6336C34.632 33.6336 36.677 33.9126 38.2497 34.4188C41.4612 35.4523 41.9403 37.227 41.9403 38.1934C41.9403 39.1598 41.4612 40.9346 38.2497 41.968H38.2486ZM26.7467 32.2334C27.013 31.9017 26.9504 31.424 26.6068 31.167C26.2631 30.91 25.768 30.9704 25.5017 31.3021C25.413 31.4119 24.8838 31.6766 23.5068 31.5854C22.2197 31.4998 20.6413 31.133 19.0606 30.552C17.4731 29.97 16.0369 29.2276 15.015 28.4643C13.9259 27.6505 13.7188 27.1168 13.7302 26.9806C13.7666 26.5622 13.4445 26.1943 13.0121 26.1592C12.5785 26.124 12.1973 26.4348 12.1609 26.8521C11.997 28.7213 15.2278 30.7706 18.5007 31.972C20.3625 32.6551 22.4064 33.1251 24.0371 33.1251C25.2537 33.1251 26.2403 32.8627 26.7467 32.2323V32.2334Z" fill="#E6456A" stroke="white" stroke-width="0.5" stroke-miterlimit="10"></path>
</svg>
