<svg width="60" height="60" viewBox="0 0 60 60" fill="none" xmlns="http://www.w3.org/2000/svg">
<circle cx="29.6206" cy="29.6206" r="29.6206" fill="white"/>
<path d="M15.1992 34.2853C19.1106 39.2755 24.1001 43.3163 29.7943 46.1052C29.7943 46.1052 39.3187 41.9939 44.6805 34.508" stroke="#E6456A" stroke-linecap="round" stroke-linejoin="round"/>
<path d="M47.2323 29.66C47.7003 28.3677 47.9997 27.0205 48.1231 25.6516C48.1486 25.2408 48.1486 24.8289 48.1231 24.4182V23.8529C48.0786 21.1774 46.9925 18.6246 45.0956 16.7373C43.1987 14.85 40.6405 13.7768 37.9648 13.746C36.3321 13.7634 34.7278 14.1748 33.2882 14.9451C31.8705 15.6971 30.6589 16.7853 29.7593 18.1142C28.8646 16.7767 27.6522 15.6819 26.2305 14.928C24.7351 14.1287 23.062 13.7206 21.3665 13.7415C19.6711 13.7624 18.0085 14.2117 16.5333 15.0476C15.0581 15.8835 13.8182 17.0788 12.9289 18.5225C12.0397 19.9661 11.5299 21.6112 11.447 23.3047V23.4246C11.4291 23.767 11.4291 24.1101 11.447 24.4524C11.4461 25.9849 11.761 27.501 12.3721 28.9063L12.6633 29.6772" stroke="#E6456A" stroke-linecap="round" stroke-linejoin="round"/>
<path d="M48.5507 32.2295H34.5895C34.415 32.2322 34.244 32.2794 34.0927 32.3665C33.9535 32.4619 33.8414 32.5917 33.7673 32.7434L32.3626 37.5913L30.2213 21.8656C30.05 21.4545 29.8616 21.1976 29.3477 21.1804" stroke="#E6456A" stroke-linecap="round" stroke-linejoin="round"/>
<path d="M29.3486 21.2318H29.0746C28.5435 21.6087 28.6806 21.386 28.475 21.8314L25.8712 35.3986L23.9355 32.4864C23.8556 32.4084 23.7628 32.3447 23.6614 32.298C23.5484 32.2739 23.4317 32.2739 23.3188 32.298H11.1562" stroke="#E6456A" stroke-linecap="round" stroke-linejoin="round"/>
</svg>
