<?xml version="1.0" encoding="UTF-8"?>
<svg xmlns="http://www.w3.org/2000/svg" width="60" height="60" viewBox="0 0 60 60" fill="none">
  <circle cx="29.6206" cy="29.6206" r="29.6206" fill="white"></circle>
  <path d="M20.6547 46.6385C20.445 46.6422 20.2401 46.5759 20.0723 46.45C20.0006 46.3917 19.9421 46.3188 19.9007 46.2361C19.8594 46.1533 19.8361 46.0628 19.8325 45.9704V38.4673L19.0616 38.6557C18.6602 38.7692 18.2828 38.9549 17.9482 39.2039C17.6382 39.4437 17.3913 39.7553 17.2287 40.1118L16.2009 42.373C16.0671 42.6238 15.8652 42.8316 15.6184 42.9726C15.3456 43.1205 15.0377 43.1916 14.7276 43.1781H14.3165C14.0704 43.1759 13.8268 43.1295 13.5971 43.0411C13.3838 42.9425 13.1962 42.7959 13.0489 42.6128C12.9151 42.4437 12.8267 42.2433 12.7919 42.0304C12.7775 41.8214 12.8252 41.6128 12.929 41.4309L13.3401 40.6086C13.4296 40.4465 13.4712 40.2624 13.46 40.0776C13.4255 39.8969 13.3492 39.7268 13.2373 39.5808C13.1095 39.4347 12.9518 39.3179 12.7748 39.2382C12.5802 39.1543 12.3699 39.1134 12.1581 39.1183H10.0854C9.68721 39.1239 9.29955 38.9906 8.98901 38.7414C8.86583 38.6353 8.76699 38.5038 8.69924 38.356C8.63149 38.2082 8.59641 38.0475 8.59641 37.8849C8.59641 37.7223 8.63149 37.5616 8.69924 37.4138C8.76699 37.266 8.86583 37.1345 8.98901 37.0284C9.3062 36.7936 9.69071 36.6674 10.0854 36.6686H12.5521C13.2703 36.6665 13.9788 36.5026 14.6249 36.189C15.2336 35.9119 15.7549 35.4735 16.1323 34.9213L18.3079 31.7008H17.4514C16.3005 31.6086 15.1977 31.1994 14.2651 30.5188C13.4304 29.9003 12.8272 29.0197 12.5521 28.0178L12.1581 26.5446L10.6164 27.0585C10.4346 27.0845 10.25 27.0845 10.0682 27.0585C9.77645 27.0739 9.48606 27.0087 9.22884 26.8701C9.01849 26.7723 8.84454 26.6104 8.73204 26.4076C8.61331 26.2249 8.55904 26.0079 8.57788 25.7909C8.59913 25.5774 8.68251 25.375 8.8177 25.2084C8.96981 25.0199 9.17151 24.8775 9.40012 24.7973L10.5479 24.3177C10.7836 24.2326 10.9831 24.0694 11.1132 23.8551C11.1807 23.7658 11.2279 23.6628 11.2516 23.5533C11.2753 23.4439 11.2748 23.3306 11.2502 23.2213L10.9247 21.2513C10.882 21.0827 10.882 20.9061 10.9247 20.7374C10.9995 20.5714 11.104 20.4204 11.2331 20.292C11.3798 20.1615 11.5478 20.0572 11.7298 19.9837C11.9282 19.915 12.1367 19.8803 12.3465 19.8809H12.4836C12.8176 19.8785 13.1451 19.9737 13.4258 20.155C13.6801 20.3231 13.8632 20.5794 13.9397 20.8745L15.1217 26.0136C15.2921 26.6717 15.649 27.2665 16.1495 27.7266C16.704 28.2421 17.3735 28.6179 18.1023 28.8229C18.8697 29.046 19.6765 29.0986 20.4663 28.9771C21.2301 28.8667 21.9575 28.5793 22.5905 28.1377L24.7146 26.1849V23.2727H26.1193V11.6926H33.4511V23.2727H34.8558V26.1849L36.9799 28.1377C37.6196 28.5818 38.3518 28.8746 39.1212 28.9942C39.911 29.1152 40.7178 29.0626 41.4852 28.8401C42.2165 28.6319 42.8865 28.2499 43.4381 27.7266C43.9355 27.2641 44.2918 26.6702 44.4659 26.0136L45.6478 20.8745C45.7185 20.5814 45.8956 20.325 46.1446 20.155C46.4234 19.9677 46.751 19.8664 47.0868 19.8638H47.241C47.4508 19.8644 47.659 19.8991 47.8577 19.9666C48.0372 20.0449 48.2045 20.1488 48.3544 20.2749C48.4884 20.4025 48.5885 20.5615 48.6457 20.7374C48.6961 20.905 48.6961 21.0838 48.6457 21.2513L48.3031 23.2213C48.2738 23.4421 48.3222 23.6662 48.4401 23.8551C48.5808 24.0558 48.7774 24.2107 49.0054 24.3005L50.1702 24.7802C50.4006 24.8663 50.6065 25.0074 50.7698 25.1913C50.9228 25.3636 51.0185 25.579 51.0439 25.808C51.0602 26.0248 51.0061 26.2411 50.8897 26.4247C50.7656 26.6349 50.5804 26.8022 50.3587 26.9043C50.1077 27.0466 49.8249 27.1232 49.5364 27.127C49.3604 27.1531 49.1815 27.1531 49.0054 27.127L47.4465 26.6131L47.0525 28.1035C46.774 29.0991 46.1712 29.9732 45.3395 30.5874C44.4054 31.2679 43.3043 31.6823 42.1533 31.7865H41.2968L43.4723 35.007C43.8498 35.5591 44.371 35.9975 44.9798 36.2746C45.6313 36.5902 46.3458 36.7541 47.0697 36.7543H49.5193C49.914 36.753 50.2985 36.8792 50.6157 37.114C50.7388 37.2201 50.8377 37.3516 50.9054 37.4994C50.9732 37.6472 51.0083 37.8079 51.0083 37.9705C51.0083 38.1331 50.9732 38.2938 50.9054 38.4416C50.8377 38.5895 50.7388 38.7209 50.6157 38.827C50.3051 39.0763 49.9175 39.2095 49.5193 39.2039H47.4294C47.2231 39.1988 47.0183 39.2398 46.8298 39.3238C46.648 39.4037 46.4847 39.5204 46.3502 39.6664C46.2433 39.8134 46.1729 39.9837 46.1446 40.1632C46.1286 40.3408 46.1643 40.5193 46.2474 40.6771L46.6757 41.4994C46.7825 41.6799 46.8247 41.8913 46.7956 42.0989C46.7743 42.3124 46.6909 42.5149 46.5558 42.6814C46.4085 42.8644 46.2209 43.011 46.0076 43.1096C45.7719 43.1979 45.5226 43.2443 45.271 43.2467H44.8599C44.554 43.2518 44.2523 43.1749 43.9862 43.024C43.7412 42.8941 43.5434 42.6903 43.4209 42.4415L42.3931 40.1461C42.2343 39.7919 41.9864 39.485 41.6736 39.2553C41.3424 38.9968 40.9643 38.8048 40.5601 38.69L39.7893 38.5016V44.8569C39.7893 44.95 39.7676 45.0418 39.726 45.1251C39.6844 45.2083 39.6239 45.2807 39.5495 45.3366C39.3876 45.4751 39.18 45.5484 38.967 45.5421H38.1448C38.0427 45.5585 37.9386 45.5585 37.8364 45.5421C37.7348 45.5116 37.6412 45.4589 37.5623 45.388C37.4822 45.3304 37.4174 45.2539 37.3739 45.1653C37.3577 45.0804 37.3577 44.9932 37.3739 44.9083V36.583C37.3675 35.5233 37.1153 34.4795 36.6373 33.5338C36.1187 32.532 35.3949 31.6506 34.5132 30.9471L31.0871 28.1377H28.5347L25.1086 30.9471C24.2307 31.6546 23.5077 32.535 22.9845 33.5338C22.5054 34.4914 22.2533 35.5465 22.2478 36.6172V45.9875C22.2452 46.0777 22.2223 46.1661 22.1808 46.2462C22.1393 46.3263 22.0802 46.396 22.008 46.45C21.8437 46.5825 21.6363 46.6496 21.4256 46.6385H20.6547Z" stroke="#E6456A" stroke-linecap="round" stroke-linejoin="round"></path>
</svg>
