<svg width="77" height="77" viewBox="0 0 77 77" fill="none" xmlns="http://www.w3.org/2000/svg">
<path d="M53.41 39.92C53.643 39.8394 53.8502 39.6978 54.01 39.51C54.1717 39.3302 54.2792 39.1083 54.32 38.87C54.3651 38.6256 54.3444 38.3737 54.26 38.14C54.169 37.9128 54.0209 37.713 53.83 37.56L41.78 28L41.53 27.81L34.65 6.80998C34.5405 6.50589 34.3721 6.22637 34.1544 5.98739C33.9368 5.74842 33.6742 5.55467 33.3817 5.41722C33.0891 5.27978 32.7724 5.20133 32.4495 5.18636C32.1267 5.17139 31.804 5.22019 31.5 5.32998L18.36 9.60998C18.0503 9.70062 17.7616 9.85153 17.5105 10.0541C17.2593 10.2566 17.0506 10.5067 16.8963 10.7901C16.7421 11.0735 16.6454 11.3846 16.6117 11.7055C16.578 12.0263 16.608 12.3507 16.7 12.66L23.58 33.66L23.5 33.96L19.43 48.83C19.3641 49.0651 19.3648 49.3139 19.4318 49.5487C19.4989 49.7835 19.6298 49.9951 19.81 50.16C19.9877 50.3304 20.2093 50.4481 20.45 50.5C20.6815 50.5698 20.9285 50.5698 21.16 50.5L53.41 39.92Z" stroke="#1457EB" stroke-width="2.5" stroke-linecap="round" stroke-linejoin="round"/>
<path d="M30.33 23.93C31.1901 23.6752 31.9547 23.1697 32.526 22.4781C33.0974 21.7866 33.4495 20.9403 33.5374 20.0476C33.6253 19.1549 33.4449 18.2562 33.0194 17.4665C32.5939 16.6768 31.9426 16.0319 31.1487 15.6143C30.3548 15.1966 29.4544 15.0253 28.5626 15.122C27.6707 15.2188 26.828 15.5793 26.1422 16.1575C25.4563 16.7357 24.9585 17.5053 24.7123 18.3678C24.4661 19.2304 24.4827 20.1469 24.76 21C25.1121 22.1253 25.8965 23.065 26.9408 23.6125C27.9852 24.1599 29.2041 24.2706 30.33 23.92" stroke="#1457EB" stroke-width="2.5" stroke-linecap="round" stroke-linejoin="round"/>
<path d="M38.46 50.35L44.4 68.37" stroke="#1457EB" stroke-width="2.5" stroke-linecap="round" stroke-linejoin="round"/>
<path d="M44.1899 48.6L60.4199 63.09" stroke="#1457EB" stroke-width="2.5" stroke-linecap="round" stroke-linejoin="round"/>
<path d="M32.63 52.41L28.59 71.82" stroke="#1457EB" stroke-width="2.5" stroke-linecap="round" stroke-linejoin="round"/>
</svg>
