<svg width="61" height="77" viewBox="0 0 61 77" fill="none" xmlns="http://www.w3.org/2000/svg">
<g clip-path="url(#clip0)">
<path d="M4.62402 26.8774V6.88111V4.35102C4.62402 2.487 6.14143 0.972778 8.02012 0.972778H36.8798C38.7536 0.972778 40.2759 2.48221 40.2759 4.35102V6.8859V59.5146V64.3017C40.2759 66.1657 38.7585 67.6799 36.8798 67.6799H8.02012C6.14625 67.6799 4.62402 66.1705 4.62402 64.3017V59.5146V56.1364" stroke="#1457EB" stroke-width="2" stroke-miterlimit="10" stroke-linecap="round" stroke-linejoin="round"/>
<path d="M4.61963 6.8811H40.2715" stroke="#1457EB" stroke-width="2" stroke-miterlimit="10" stroke-linecap="round" stroke-linejoin="round"/>
<path d="M4.61963 59.5146H40.2715" stroke="#1457EB" stroke-width="2" stroke-miterlimit="10" stroke-linecap="round" stroke-linejoin="round"/>
<path d="M24.6109 65.0109H20.2177C19.5577 65.0109 19.0182 64.479 19.0182 63.8177V63.3529C19.0182 62.6964 19.5529 62.1597 20.2177 62.1597H24.6109C25.2709 62.1597 25.8104 62.6916 25.8104 63.3529V63.8177C25.8104 64.479 25.2757 65.0109 24.6109 65.0109Z" stroke="#1457EB" stroke-width="2" stroke-miterlimit="10" stroke-linecap="round" stroke-linejoin="round"/>
<path d="M20.1935 4.03473H24.6975" stroke="#1457EB" stroke-width="2" stroke-miterlimit="10" stroke-linecap="round" stroke-linejoin="round"/>
<path d="M17.0335 4.03475C17.0335 4.53789 16.6241 4.94999 16.1134 4.94999C15.6076 4.94999 15.1934 4.54268 15.1934 4.03475C15.1934 3.5316 15.6028 3.11951 16.1134 3.11951C16.6241 3.11951 17.0335 3.52681 17.0335 4.03475Z" stroke="#1457EB" stroke-width="2" stroke-miterlimit="10"/>
<path d="M9.53319 43.0498H3.13599C1.94134 43.0498 0.977905 42.0867 0.977905 40.9031V39.5709C0.977905 38.3826 1.94616 37.4242 3.13599 37.4242H9.53319C10.8435 37.4242 11.9032 38.4784 11.9032 39.7818V40.7018C11.9032 41.9956 10.8386 43.0498 9.53319 43.0498Z" stroke="#1457EB" stroke-width="2" stroke-miterlimit="10" stroke-linecap="round" stroke-linejoin="round"/>
<path d="M7.36065 55.9974H3.136C1.94134 55.9974 0.977905 55.0342 0.977905 53.8506V52.5185C0.977905 51.3301 1.94616 50.3718 3.136 50.3718H7.36065C8.67092 50.3718 9.73069 51.426 9.73069 52.7293V53.6494C9.73069 54.9432 8.67092 55.9974 7.36065 55.9974Z" stroke="#1457EB" stroke-width="2" stroke-miterlimit="10" stroke-linecap="round" stroke-linejoin="round"/>
<path d="M7.36065 36.5761H3.136C1.94134 36.5761 0.977905 35.6129 0.977905 34.4293V33.0972C0.977905 31.9088 1.94616 30.9504 3.136 30.9504H7.36065C8.67092 30.9504 9.73069 32.0046 9.73069 33.308V34.2281C9.73069 35.5218 8.67092 36.5761 7.36065 36.5761Z" stroke="#1457EB" stroke-width="2" stroke-miterlimit="10" stroke-linecap="round" stroke-linejoin="round"/>
<path d="M10.2798 49.5236H3.13599C1.94134 49.5236 0.977905 48.5605 0.977905 47.3769V46.0447C0.977905 44.8564 1.94616 43.898 3.13599 43.898H10.2798C11.5901 43.898 12.6499 44.9522 12.6499 46.2556V47.1756C12.6499 48.4694 11.5901 49.5236 10.2798 49.5236Z" stroke="#1457EB" stroke-width="2" stroke-miterlimit="10" stroke-linecap="round" stroke-linejoin="round"/>
<path d="M32.0245 76.0273L19.2831 67.6799" stroke="#1457EB" stroke-width="2" stroke-miterlimit="10" stroke-linecap="round" stroke-linejoin="round"/>
<path d="M43.7736 41.0804V32.5509C43.7736 32.0621 43.5664 31.2811 43.3159 30.7396L40.7195 26.0101C40.4256 25.4782 40.2715 24.8792 40.2715 24.2706V17.8112C40.2715 17.1404 41.0422 16.7618 41.5769 17.1739L48.8075 24.7354C50.5899 26.5084 51.7026 28.1424 51.8808 30.3706C52.9599 43.8548 53.9137 59.0162 53.9089 58.9491C54.8723 63.0749 56.6017 64.3112 59.7617 66.6065" stroke="#1457EB" stroke-width="2" stroke-miterlimit="10" stroke-linecap="round" stroke-linejoin="round"/>
<path d="M40.2715 35.9244L42.0394 37.0601C42.786 37.5393 43.7736 37.0074 43.7736 36.1209V35.7423" stroke="#1457EB" stroke-width="2" stroke-miterlimit="10" stroke-linecap="round" stroke-linejoin="round"/>
<path d="M28.4694 25.4734C28.4694 29.5512 27.082 36.4563 22.1685 36.4563C17.255 36.4563 15.8677 29.5512 15.8677 25.4734" stroke="#1457EB" stroke-width="2" stroke-miterlimit="10" stroke-linecap="round" stroke-linejoin="round"/>
<path d="M18.8062 39.2355V35.2487" stroke="#1457EB" stroke-width="2" stroke-miterlimit="10" stroke-linecap="round" stroke-linejoin="round"/>
<path d="M25.5261 35.2535V39.2355C25.5261 39.2355 30.642 42.0627 33.9754 42.0627C30.6853 37.635 31.1189 25.9046 31.1189 22.4928C31.1189 19.0811 28.0118 13.973 21.9855 13.973C15.9592 13.973 13.3291 18.3671 13.3291 22.4928C13.3291 27.069 13.5458 31.1517 13.2279 34.6018" stroke="#1457EB" stroke-width="2" stroke-miterlimit="10" stroke-linecap="round" stroke-linejoin="round"/>
<path d="M13.3483 24.7163H18.8061L20.1019 22.3539L21.6531 24.7163H31.1043" stroke="#1457EB" stroke-width="2" stroke-miterlimit="10" stroke-linecap="round" stroke-linejoin="round"/>
<path d="M29.5004 48.8384C27.5157 50.1322 25.0445 51.1576 22.1686 51.1576C19.2928 51.1576 16.8216 50.137 14.8369 48.8384" stroke="#1457EB" stroke-width="2" stroke-miterlimit="10" stroke-linecap="round" stroke-linejoin="round"/>
</g>
<defs>
<clipPath id="clip0">
<rect width="60.7444" height="77" fill="white"/>
</clipPath>
</defs>
</svg>
