<svg width="65" height="66" viewBox="0 0 65 66" fill="none" xmlns="http://www.w3.org/2000/svg">
<path d="M54.3359 33.9813C55.0828 36.7993 55.0854 39.7629 54.3436 42.5823C53.6018 45.4016 52.1409 47.9802 50.1039 50.0658C48.0668 52.1513 45.5234 53.6724 42.7222 54.4804C39.9211 55.2883 36.9582 55.3554 34.1234 54.675" stroke="#1457EB" stroke-width="3" stroke-miterlimit="10" stroke-linecap="round" stroke-linejoin="round"/>
<path d="M38.0937 2.21875V11.8437M11.625 38.3125H2M11.625 11.8437L20.0469 20.2656M26.1828 50.2234C23.0238 47.0645 21.2491 42.78 21.2491 38.3125C21.2491 33.845 23.0238 29.5605 26.1828 26.4016C29.3418 23.2426 33.6263 21.4679 38.0937 21.4679C42.5612 21.4679 46.8457 23.2426 50.0047 26.4016L26.1828 50.2234Z" stroke="#1457EB" stroke-width="3" stroke-miterlimit="10" stroke-linecap="round" stroke-linejoin="round"/>
<path d="M63.3594 13.0469L12.8281 63.5781" stroke="#1457EB" stroke-width="3" stroke-miterlimit="10" stroke-linecap="round" stroke-linejoin="round"/>
</svg>
