<svg width="69" height="81" viewBox="0 0 69 81" fill="none" xmlns="http://www.w3.org/2000/svg">
<path d="M63.1626 31.7459C63.0505 31.7112 62.9365 31.6827 62.8212 31.6605V31.5965C62.8212 30.4229 62.7465 29.2173 62.7465 27.9903C62.7465 24.2454 60.3886 16.2541 59.9299 16.1901C55.5875 7.85742 46.5933 2.32008 35.3906 2H33.6408C22.4488 2.35209 13.4439 7.87876 9.10153 16.2328C8.70677 16.3501 6.32752 24.1387 6.32752 27.9049C6.32752 29.1639 6.32752 30.4229 6.2315 31.6499C6.0928 31.6499 5.94343 31.7032 5.8154 31.7459C2.36923 32.6848 1.01424 38.3928 2.76399 44.7304C4.0443 49.4142 6.65827 53.0204 9.35759 54.1086C9.63499 55.8797 9.88039 57.6722 10.0831 59.4433C10.1881 60.4985 10.4656 61.5293 10.9046 62.4947C12.8464 67.0718 21.8833 73.9321 21.9153 73.9321C22.5128 74.4122 23.0569 74.8283 23.4623 75.2017C26.375 77.8797 28.893 78.8506 33.5981 79H35.3479C40.0424 78.8506 42.571 77.9331 45.4837 75.2017C45.8891 74.8283 46.4226 74.4015 47.0307 73.9321C47.0307 73.9321 48.0976 73.1426 48.0976 73.1319C51.3944 70.6353 56.0462 67.1144 58.0094 62.58C58.4255 62.4733 58.7989 59.9981 58.8629 59.4433C59.0656 57.6402 59.311 55.8371 59.5671 54.1086C62.2771 53.0417 64.9017 49.4142 66.182 44.7304C67.9318 38.3928 66.5768 32.6848 63.12 31.7459" stroke="#1457EB" stroke-width="2.5" stroke-linecap="round" stroke-linejoin="round"/>
<path d="M45.7825 60.0193L45.4945 59.9446L45.2811 60.1153C44.6458 60.4014 43.9485 60.5225 43.2539 60.4674C42.4751 60.4674 41.5148 60.3928 40.3946 60.3287C38.8048 60.2327 36.8204 60.1153 34.4838 60.1153C32.1472 60.1153 30.2161 60.222 28.541 60.2861C27.3887 60.3394 26.4072 60.3927 25.5856 60.3927C24.284 60.3927 23.8359 60.2647 23.6865 60.1367L23.4411 59.9446L23.153 60.0193C22.952 60.0444 22.7635 60.1305 22.6128 60.2659C22.4621 60.4013 22.3565 60.5796 22.3102 60.7768C22.2902 60.9969 22.3389 61.2177 22.4498 61.4088C22.5606 61.5999 22.7281 61.7519 22.929 61.8438L23.1637 62.0038C26.4684 64.3639 30.423 65.6423 34.4838 65.6634C38.4669 65.6937 42.3551 64.4487 45.5798 62.1105L45.9852 61.8544C46.476 61.5237 46.7001 61.1609 46.6254 60.7342C46.572 60.5395 46.4644 60.364 46.3152 60.228C46.166 60.092 45.9813 60.0012 45.7825 59.966" stroke="#1457EB" stroke-width="2.5" stroke-linecap="round" stroke-linejoin="round"/>
<path d="M40.6505 51.9214C40.1423 51.7074 39.5875 51.6284 39.0398 51.692C38.4921 51.7556 37.9701 51.9595 37.5244 52.2841C37.3418 52.4506 37.174 52.6327 37.023 52.8282C36.812 53.1749 36.5244 53.4686 36.1822 53.6869C35.8401 53.9051 35.4525 54.0421 35.0491 54.0872H33.9822C33.5645 54.0401 33.1632 53.8971 32.8098 53.6695C32.4563 53.4419 32.1602 53.1357 31.9444 52.7749C31.7737 52.5722 31.6243 52.4121 31.507 52.2841C31.0622 51.9578 30.5407 51.7519 29.993 51.6865C29.4453 51.621 28.8899 51.6983 28.3809 51.9107" stroke="#1457EB" stroke-width="2.5" stroke-linecap="round" stroke-linejoin="round"/>
<path d="M47.4788 52.1028C47.5143 51.3032 47.7838 50.5318 48.2539 49.8841C48.7239 49.2363 49.3738 48.7409 50.1229 48.4593C50.872 48.1776 51.6874 48.1221 52.4677 48.2997C53.2481 48.4772 53.9591 48.88 54.5126 49.4581C55.0661 50.0361 55.4376 50.764 55.5812 51.5513C55.7247 52.3386 55.6339 53.1508 55.3199 53.8869C55.006 54.6231 54.4829 55.2509 53.8154 55.6924C53.1479 56.1339 52.3654 56.3697 51.5651 56.3705C51.0163 56.3594 50.4751 56.2401 49.9725 56.0195C49.4699 55.7988 49.0158 55.4812 48.6362 55.0847C48.2566 54.6883 47.9589 54.2208 47.7603 53.7091C47.5617 53.1974 47.466 52.6515 47.4788 52.1028" fill="#1457EB"/>
<path d="M41.4518 26.806C41.4873 26.0065 41.7568 25.235 42.2269 24.5873C42.697 23.9396 43.3469 23.4442 44.096 23.1625C44.8451 22.8808 45.6604 22.8253 46.4407 23.0029C47.2211 23.1805 47.9321 23.5833 48.4856 24.1613C49.0391 24.7394 49.4106 25.4672 49.5542 26.2545C49.6977 27.0419 49.6069 27.854 49.293 28.5902C48.9791 29.3264 48.4559 29.9541 47.7884 30.3956C47.1209 30.8371 46.3384 31.0729 45.5381 31.0737C44.9893 31.0626 44.4481 30.9434 43.9455 30.7227C43.4429 30.5021 42.9888 30.1844 42.6092 29.788C42.2296 29.3915 41.932 28.924 41.7333 28.4123C41.5347 27.9006 41.4391 27.3548 41.4518 26.806" fill="#1457EB"/>
<path d="M14.2868 52.1028C14.3223 51.3032 14.5918 50.5318 15.0619 49.8841C15.5319 49.2363 16.1818 48.7409 16.9309 48.4593C17.68 48.1776 18.4953 48.1221 19.2757 48.2997C20.0561 48.4772 20.7671 48.88 21.3206 49.4581C21.8741 50.0361 22.2456 50.764 22.3891 51.5513C22.5327 52.3386 22.4418 53.1508 22.1279 53.8869C21.814 54.6231 21.2909 55.2509 20.6234 55.6924C19.9558 56.1339 19.1734 56.3697 18.3731 56.3705C17.8243 56.3594 17.2831 56.2401 16.7805 56.0195C16.2779 55.7988 15.8238 55.4812 15.4442 55.0847C15.0646 54.6883 14.7669 54.2208 14.5683 53.7091C14.3697 53.1974 14.274 52.6515 14.2868 52.1028" fill="#1457EB"/>
<path d="M19.0464 26.806C19.0819 26.0065 19.3514 25.235 19.8215 24.5873C20.2916 23.9396 20.9415 23.4442 21.6906 23.1625C22.4397 22.8808 23.255 22.8253 24.0353 23.0029C24.8157 23.1805 25.5267 23.5833 26.0802 24.1613C26.6337 24.7394 27.0053 25.4672 27.1488 26.2545C27.2923 27.0419 27.2015 27.854 26.8876 28.5902C26.5737 29.3264 26.0505 29.9541 25.383 30.3956C24.7155 30.8371 23.933 31.0729 23.1327 31.0737C22.584 31.0626 22.0427 30.9434 21.5401 30.7227C21.0375 30.5021 20.5834 30.1844 20.2038 29.788C19.8242 29.3915 19.5266 28.924 19.3279 28.4123C19.1293 27.9006 19.0337 27.3548 19.0464 26.806" fill="#1457EB"/>
<path d="M47.2655 35.4908C42.0269 35.16 39.797 40.5587 39.797 40.7401C39.797 41.2949 43.6379 41.743 45.6437 41.743H46.9241C50.701 41.743 54.0298 40.5374 54.0298 39.161C54.0298 37.3793 50.5623 35.4908 47.2975 35.4908" stroke="#1457EB" stroke-width="2.5" stroke-linecap="round" stroke-linejoin="round"/>
<path d="M21.2538 35.4908C17.9783 35.4908 14.5215 37.3793 14.5215 39.161C14.5215 40.5374 17.8503 41.743 21.6272 41.743H22.9075C24.9133 41.743 28.7543 41.2949 28.7543 40.7401C28.7543 40.5587 26.4924 35.16 21.2858 35.4908" stroke="#1457EB" stroke-width="2.24" stroke-linecap="round" stroke-linejoin="round"/>
<path d="M25.2975 12.1571C26.1519 12.1571 26.8446 11.4645 26.8446 10.6101C26.8446 9.75568 26.1519 9.06305 25.2975 9.06305C24.4431 9.06305 23.7505 9.75568 23.7505 10.6101C23.7505 11.4645 24.4431 12.1571 25.2975 12.1571Z" fill="#1457EB"/>
<path d="M34.5158 72.8225C35.3702 72.8225 36.0628 72.1298 36.0628 71.2754C36.0628 70.421 35.3702 69.7284 34.5158 69.7284C33.6614 69.7284 32.9688 70.421 32.9688 71.2754C32.9688 72.1298 33.6614 72.8225 34.5158 72.8225Z" fill="#1457EB"/>
<path d="M34.5158 41.2095C35.3702 41.2095 36.0628 40.5169 36.0628 39.6625C36.0628 38.8081 35.3702 38.1154 34.5158 38.1154C33.6614 38.1154 32.9688 38.8081 32.9688 39.6625C32.9688 40.5169 33.6614 41.2095 34.5158 41.2095Z" fill="#1457EB"/>
<path d="M43.7339 12.1571C44.5883 12.1571 45.281 11.4645 45.281 10.6101C45.281 9.75568 44.5883 9.06305 43.7339 9.06305C42.8795 9.06305 42.1869 9.75568 42.1869 10.6101C42.1869 11.4645 42.8795 12.1571 43.7339 12.1571Z" fill="#1457EB"/>
<path d="M22.8114 28.7371C23.6659 28.7371 24.3585 28.0445 24.3585 27.19C24.3585 26.3356 23.6659 25.643 22.8114 25.643C21.957 25.643 21.2644 26.3356 21.2644 27.19C21.2644 28.0445 21.957 28.7371 22.8114 28.7371Z" fill="#1457EB"/>
<path d="M46.1452 28.7371C46.9996 28.7371 47.6922 28.0445 47.6922 27.19C47.6922 26.3356 46.9996 25.643 46.1452 25.643C45.2908 25.643 44.5981 26.3356 44.5981 27.19C44.5981 28.0445 45.2908 28.7371 46.1452 28.7371Z" fill="#1457EB"/>
<path d="M25.4042 10.6313H25.7029" stroke="#1457EB" stroke-width="0.84" stroke-miterlimit="10" stroke-linecap="round"/>
<path d="M27.1432 10.6313H42.6029" stroke="#1457EB" stroke-width="0.84" stroke-miterlimit="10" stroke-linecap="round" stroke-dasharray="0.54 1.35"/>
<path d="M43.3285 10.6313H43.6272" stroke="#1457EB" stroke-width="0.84" stroke-miterlimit="10" stroke-linecap="round"/>
<path d="M25.2975 11.0048L22.9076 27.1367" stroke="#1457EB" stroke-width="0.84" stroke-miterlimit="10" stroke-linecap="round" stroke-dasharray="0.56 1.4"/>
<path d="M43.894 11.0048L46.284 27.1367" stroke="#1457EB" stroke-width="0.84" stroke-miterlimit="10" stroke-linecap="round" stroke-dasharray="0.56 1.4"/>
<path d="M6.47681 32.1407L23.2809 26.9127" stroke="#1457EB" stroke-width="0.84" stroke-miterlimit="10" stroke-linecap="round" stroke-dasharray="0.56 1.4"/>
<path d="M62.9386 32.1407L46.1345 26.9127" stroke="#1457EB" stroke-width="0.84" stroke-miterlimit="10" stroke-linecap="round" stroke-dasharray="0.56 1.4"/>
<path d="M23.5051 27.3608H46.3587" stroke="#1457EB" stroke-width="0.84" stroke-miterlimit="10" stroke-linecap="round" stroke-dasharray="0.56 1.4"/>
<path d="M21.1898 4.88062L25.6709 10.6313" stroke="#1457EB" stroke-width="0.84" stroke-miterlimit="10" stroke-linecap="round" stroke-dasharray="0.56 1.4"/>
<path d="M48.3003 4.88062L43.8192 10.6313" stroke="#1457EB" stroke-width="0.84" stroke-miterlimit="10" stroke-linecap="round" stroke-dasharray="0.56 1.4"/>
<path d="M7.14905 32.8875L17.7543 51.1852" stroke="#1457EB" stroke-width="0.84" stroke-miterlimit="10" stroke-linecap="round" stroke-dasharray="0.56 1.4"/>
<path d="M62.2664 32.8875L51.6611 51.1852" stroke="#1457EB" stroke-width="0.84" stroke-miterlimit="10" stroke-linecap="round" stroke-dasharray="0.56 1.4"/>
<path d="M34.217 71.254L20.9658 73.4412" stroke="#1457EB" stroke-width="0.84" stroke-miterlimit="10" stroke-linecap="round" stroke-dasharray="0.56 1.4"/>
<path d="M34.9531 71.254L48.2043 73.4412" stroke="#1457EB" stroke-width="0.84" stroke-miterlimit="10" stroke-linecap="round" stroke-dasharray="0.56 1.4"/>
<path d="M22.8649 27.6381L34.313 39.4917" stroke="#1457EB" stroke-width="0.84" stroke-miterlimit="10" stroke-linecap="round" stroke-dasharray="0.56 1.4"/>
<path d="M45.9639 27.6381L34.5157 39.4917" stroke="#1457EB" stroke-width="0.84" stroke-miterlimit="10" stroke-linecap="round" stroke-dasharray="0.56 1.4"/>
</svg>
