<svg width="46" height="81" viewBox="0 0 46 81" fill="none" xmlns="http://www.w3.org/2000/svg">
<path d="M14.0602 2.92773V3.47557C14.0602 5.22246 14.9843 6.63858 16.1099 6.63858H30.5765C31.7613 6.63858 32.6144 5.22246 32.6144 3.48591V2.94841" stroke="#1457EB" stroke-width="2.5" stroke-linecap="round" stroke-linejoin="round"/>
<path d="M7.20422 19.2344V13.6496H14.9349" stroke="#1457EB" stroke-width="2.5" stroke-linecap="round" stroke-linejoin="round"/>
<path d="M40.0102 19.2344V13.6496H33.7443" stroke="#1457EB" stroke-width="2.5" stroke-linecap="round" stroke-linejoin="round"/>
<path d="M40.0102 36.9318V42.5166H33.7443" stroke="#1457EB" stroke-width="2.5" stroke-linecap="round" stroke-linejoin="round"/>
<path d="M7.20422 36.9318V42.5166H13.4701" stroke="#1457EB" stroke-width="2.5" stroke-linecap="round" stroke-linejoin="round"/>
<path d="M2.00001 68.5753V73.9975C1.99847 74.6548 2.13071 75.306 2.38914 75.9136C2.64757 76.5212 3.02709 77.0733 3.50592 77.5381C3.98475 78.0029 4.55344 78.3714 5.17936 78.6222C5.80527 78.8731 6.47606 79.0015 7.15323 79H39.5215C40.1986 79.0015 40.8694 78.8731 41.4953 78.6222C42.1213 78.3714 42.69 78.0029 43.1688 77.5381C43.6476 77.0733 44.0271 76.5212 44.2856 75.9136C44.544 75.306 44.6762 74.6548 44.6747 73.9975V6.99117C44.6747 6.33477 44.5413 5.68481 44.2822 5.07851C44.0231 4.47222 43.6433 3.92149 43.1646 3.45787C42.686 2.99425 42.1178 2.62684 41.4926 2.37668C40.8675 2.12652 40.1977 1.99852 39.5215 2.00001H7.15323C6.47705 1.99852 5.80721 2.12652 5.18206 2.37668C4.55691 2.62684 3.98873 2.99425 3.51006 3.45787C3.03139 3.92149 2.65162 4.47222 2.3925 5.07851C2.13339 5.68481 2.00001 6.33477 2.00001 6.99117V68.5753Z" stroke="#1457EB" stroke-width="2.5" stroke-linecap="round" stroke-linejoin="round"/>
<rect x="6.20422" y="55.7349" width="9.28592" height="8.49398" rx="2" stroke="#1457EB" stroke-width="2"/>
<rect x="18.6943" y="55.7349" width="9.28592" height="8.49398" rx="2" stroke="#1457EB" stroke-width="2"/>
<rect x="31.1846" y="55.7349" width="9.28592" height="8.49398" rx="2" stroke="#1457EB" stroke-width="2"/>
<rect x="6.20422" y="66.8675" width="9.28592" height="8.49398" rx="2" stroke="#1457EB" stroke-width="2"/>
<rect x="18.6943" y="66.8675" width="9.28592" height="8.49398" rx="2" stroke="#1457EB" stroke-width="2"/>
<g clip-path="url(#clip0)">
<path d="M24.3001 46.9113H22.2819C20.7899 46.9113 19.399 46.3296 18.4656 45.3165L15.9659 42.601C14.9512 41.5304 13.1715 39.2659 12.9188 37.5366L12.7167 36.1581C12.6101 35.431 12.3658 34.7283 11.9883 34.072L11.7918 33.731C11.1307 32.5798 10.7812 31.2905 10.7812 30.0036V24.294C10.7812 18.1395 16.5316 13.1326 23.5998 13.1326C30.668 13.1326 36.4183 18.1395 36.4183 24.294V29.7506C36.4183 31.2245 35.9678 32.6763 35.1144 33.9498C34.6063 34.7075 34.2849 35.5336 34.1572 36.4037L33.9916 37.5366C33.7347 39.294 31.9143 41.6441 30.755 42.7941C30.7508 42.7978 30.748 42.8014 30.7438 42.8051L27.9227 45.5133C26.9977 46.4017 25.677 46.9113 24.3001 46.9113ZM23.5998 14.9657C17.6923 14.9657 12.8866 19.1502 12.8866 24.294V30.0048C12.8866 31.0094 13.1588 32.014 13.6753 32.9122L13.8704 33.2532C14.3533 34.094 14.6677 34.9934 14.8038 35.9271L15.0059 37.3057C15.1743 38.4544 16.62 40.4147 17.5926 41.4388C17.5954 41.4425 17.5996 41.4461 17.6025 41.4498L20.1078 44.1702C20.6397 44.747 21.4313 45.0782 22.2819 45.0782H24.3001C25.0847 45.0782 25.837 44.7886 26.3633 44.2826L29.1788 41.5806C30.3606 40.4061 31.7375 38.441 31.9031 37.3057L32.0687 36.1728C32.2315 35.057 32.6456 33.9987 33.2954 33.0271C33.9607 32.0335 34.313 30.9006 34.313 29.7506V24.294C34.313 19.1502 29.5073 14.9657 23.5998 14.9657Z" fill="#1457EB"/>
<path d="M7.88999 53.9518C7.51806 53.9518 7.15735 53.7795 6.96646 53.4764C6.68716 53.0328 6.87243 52.4755 7.38191 52.2323L15.0677 48.5563L15.6628 42.5301C15.7119 42.0254 16.2242 41.6526 16.8011 41.6954C17.3807 41.7382 17.8102 42.183 17.7597 42.6865L17.1169 49.2015C17.0874 49.5071 16.8839 49.7784 16.5751 49.9262L8.39527 53.8394C8.23526 53.9152 8.06122 53.9518 7.88999 53.9518Z" fill="#1457EB"/>
<path d="M38.7847 53.9519C38.6134 53.9519 38.4394 53.9152 38.2794 53.8382L30.0996 49.925C29.7908 49.7772 29.5873 49.5059 29.5578 49.2003L28.915 42.6853C28.8658 42.1806 29.2939 41.737 29.8736 41.6942C30.4518 41.6514 30.9627 42.0242 31.0119 42.5289L31.607 48.5551L39.2927 52.2311C39.8022 52.4743 39.9889 53.0316 39.7082 53.4752C39.5173 53.7808 39.1566 53.9519 38.7847 53.9519Z" fill="#1457EB"/>
</g>
<defs>
<clipPath id="clip0">
<rect width="35.253" height="43.6024" fill="white" transform="translate(5.71082 10.3494)"/>
</clipPath>
</defs>
</svg>
