<svg width="1440" height="1105" viewBox="0 0 1440 1105" fill="none" xmlns="http://www.w3.org/2000/svg">
<path fill-rule="evenodd" clip-rule="evenodd" d="M1616.22 139.736C1736.49 199.525 1817.2 222.266 1962 200.258L1962 825.071H2258V966.291C2100.61 951.323 2013.6 966.616 1882.7 1007.94C1856.1 1016.32 1830.75 1025.78 1805.43 1035.23C1747.2 1056.95 1689.13 1078.62 1616.35 1087.01C1488.48 1101.65 1356.82 1070.09 1258.45 1031.69C1227.42 1019.58 1197.9 1006.6 1168.39 993.613C1104.34 965.441 1040.34 937.289 961.087 918.133C721.226 860.213 413.266 903.815 196.861 977.354C164.913 988.212 134.017 999.712 103.159 1011.2C43.3923 1033.44 -16.2352 1055.64 -83.1028 1073.02C-185.252 1099.38 -311.614 1114.34 -422.843 1096.12C-473.815 1087.79 -517.048 1073.3 -560.377 1058.79C-594.873 1047.23 -629.429 1035.65 -668 1027.14L-668 871.149H-737L-737 111.859C-701.65 99.528 -669.705 82.7474 -637.812 65.9933C-597.602 44.8708 -557.472 23.7904 -510.699 11.7217C-408.626 -14.6881 -291.518 6.58644 -197.358 45.1007C-134.277 70.9028 -78.2982 103.784 -22.2847 136.685C5.31232 152.895 32.9177 169.11 61.3852 184.486C261.575 291.592 544.847 354.682 766.401 270.684C839.807 242.958 899.014 201.893 958.401 160.704C985.435 141.954 1012.51 123.178 1040.97 105.623C1131.17 49.5023 1253.03 3.65195 1370.93 24.9265C1438 37.0037 1491.87 68.7026 1545.86 100.476C1568.95 114.058 1592.05 127.653 1616.22 139.736Z" fill="#EBF1FE"/>
</svg>
