<?xml version="1.0" encoding="UTF-8" standalone="no"?>
<svg
   xmlns:dc="http://purl.org/dc/elements/1.1/"
   xmlns:cc="http://creativecommons.org/ns#"
   xmlns:rdf="http://www.w3.org/1999/02/22-rdf-syntax-ns#"
   xmlns:svg="http://www.w3.org/2000/svg"
   xmlns="http://www.w3.org/2000/svg"
   id="svg982"
   version="1.1"
   viewBox="0 0 66.145832 11.90625"
   height="45"
   width="250">
  <defs
     id="defs976" />
  <metadata
     id="metadata979">
    <rdf:RDF>
      <cc:Work
         rdf:about="">
        <dc:format>image/svg+xml</dc:format>
        <dc:type
           rdf:resource="http://purl.org/dc/dcmitype/StillImage" />
        <dc:title></dc:title>
      </cc:Work>
    </rdf:RDF>
  </metadata>
  <g
     transform="translate(0,-285.09373)"
     id="layer1">
    <g
       transform="matrix(1,0,0,1.0243197,-3.1750001,-6.8711743)"
       id="text1529"
       style="font-style:normal;font-weight:normal;font-size:10.58333302px;line-height:1.25;font-family:sans-serif;letter-spacing:0px;word-spacing:0px;fill:#000000;fill-opacity:1;stroke:none;stroke-width:0.26458332"
       aria-label="TECH">
      <path
         id="path1531"
         style="font-style:normal;font-variant:normal;font-weight:normal;font-stretch:normal;font-size:7.76111126px;font-family:'Sansation Light';-inkscape-font-specification:'Sansation Light, ';stroke-width:0.26458332"
         d="m 20.682433,288.06875 v 0.34106 h -1.856907 v 5.07807 h -0.397908 v -5.07807 h -1.819011 v -0.34106 z" />
      <path
         id="path1533"
         style="font-style:normal;font-variant:normal;font-weight:normal;font-stretch:normal;font-size:7.76111126px;font-family:'Sansation Light';-inkscape-font-specification:'Sansation Light, ';stroke-width:0.26458332"
         d="m 24.888894,288.06875 v 0.34106 h -3.16053 v 2.16008 h 3.031684 v 0.34106 h -3.031684 v 2.23587 h 3.213585 v 0.34106 h -3.611494 v -5.41913 z" />
      <path
         id="path1535"
         style="font-style:normal;font-variant:normal;font-weight:normal;font-stretch:normal;font-size:7.76111126px;font-family:'Sansation Light';-inkscape-font-specification:'Sansation Light, ';stroke-width:0.26458332"
         d="m 30.228448,293.2984 q -0.738973,0.22738 -1.515842,0.22738 -2.842204,0 -2.842204,-2.82326 0,-2.67167 2.842204,-2.67167 0.776869,0 1.515842,0.22738 v 0.34106 q -0.738973,-0.22738 -1.44005,-0.22738 -2.520087,0 -2.520087,2.33061 0,2.48219 2.520087,2.48219 0.701077,0 1.44005,-0.22737 z" />
      <path
         id="path1537"
         style="font-style:normal;font-variant:normal;font-weight:normal;font-stretch:normal;font-size:7.76111126px;font-family:'Sansation Light';-inkscape-font-specification:'Sansation Light, ';stroke-width:0.26458332"
         d="m 31.380488,293.48788 v -5.41913 h 0.397908 v 2.50114 h 3.694865 v -2.50114 h 0.397909 v 5.41913 h -0.397909 v -2.57693 h -3.694865 v 2.57693 z" />
    </g>
    <g
       transform="translate(-3.7041668)"
       id="text1542"
       style="font-style:normal;font-weight:normal;font-size:10.58333302px;line-height:1.25;font-family:sans-serif;letter-spacing:0px;word-spacing:0px;fill:#000000;fill-opacity:1;stroke:none;stroke-width:0.26458332"
       aria-label="TRENDS">
      <path
         id="path1544"
         style="font-style:normal;font-variant:normal;font-weight:normal;font-stretch:normal;font-size:7.76111126px;font-family:Sansation;-inkscape-font-specification:Sansation;stroke-width:0.26458332"
         d="m 41.852571,288.23998 v 0.56844 h -1.705323 v 4.8507 h -0.701077 v -4.8507 h -1.705322 v -0.56844 z" />
      <path
         id="path1546"
         style="font-style:normal;font-variant:normal;font-weight:normal;font-stretch:normal;font-size:7.76111126px;font-family:Sansation;-inkscape-font-specification:Sansation;stroke-width:0.26458332"
         d="m 42.682494,293.65912 v -5.41914 h 2.311659 q 1.546159,0 1.546159,1.29984 0,1.0573 -1.512053,1.5651 l 1.860696,2.5542 h -0.924663 l -1.72427,-2.43672 v -0.45854 q 1.553738,-0.24632 1.553738,-1.19373 0,-0.75034 -0.86403,-0.75034 h -1.546159 v 4.83933 z" />
      <path
         id="path1548"
         style="font-style:normal;font-variant:normal;font-weight:normal;font-stretch:normal;font-size:7.76111126px;font-family:Sansation;-inkscape-font-specification:Sansation;stroke-width:0.26458332"
         d="m 51.16742,288.23998 v 0.56844 h -2.842204 v 1.81901 h 2.709568 v 0.56845 h -2.709568 v 1.8948 h 2.899048 v 0.56844 h -3.600125 v -5.41914 z" />
      <path
         id="path1550"
         style="font-style:normal;font-variant:normal;font-weight:normal;font-stretch:normal;font-size:7.76111126px;font-family:Sansation;-inkscape-font-specification:Sansation;stroke-width:0.26458332"
         d="m 52.292933,293.65912 v -5.41914 h 0.701077 l 3.315904,4.36563 v -4.36563 h 0.663181 v 5.41914 h -0.701077 l -3.315904,-4.40352 v 4.40352 z" />
      <path
         id="path1552"
         style="font-style:normal;font-variant:normal;font-weight:normal;font-stretch:normal;font-size:7.76111126px;font-family:Sansation;-inkscape-font-specification:Sansation;stroke-width:0.26458332"
         d="m 60.235944,293.09068 q 1.989543,0 1.989543,-2.28892 0,-1.99334 -1.989543,-1.99334 h -1.269518 v 4.28226 z m -1.970594,0.56844 v -5.41914 h 1.970594 q 2.69062,0 2.69062,2.56178 0,2.85736 -2.69062,2.85736 z" />
      <path
         id="path1554"
         style="font-style:normal;font-variant:normal;font-weight:normal;font-stretch:normal;font-size:7.76111126px;font-family:Sansation;-inkscape-font-specification:Sansation;stroke-width:0.26458332"
         d="m 63.873966,293.46964 v -0.64423 q 0.852661,0.30316 1.841748,0.30316 1.398364,0 1.398364,-1.02319 0,-0.87161 -1.030773,-0.87161 h -0.697287 q -1.701533,0 -1.701533,-1.47794 0,-1.55374 2.179023,-1.55374 0.947402,0 1.762167,0.22737 v 0.64424 q -0.814765,-0.30317 -1.762167,-0.30317 -1.477946,0 -1.477946,0.9853 0,0.8716 1.000456,0.8716 h 0.697287 q 1.73185,0 1.73185,1.47795 0,1.59163 -2.099441,1.59163 -0.989087,0 -1.841748,-0.22737 z" />
    </g>
    <circle
       r="5.3453903"
       cy="291.13077"
       cx="7.4835467"
       id="path1557"
       style="fill:#00aeef;fill-opacity:1;stroke:#00aeef;stroke-width:0.26458332;stroke-opacity:1" />
    <g
       transform="translate(-0.26726953,0.12826238)"
       id="text1561"
       style="font-style:normal;font-weight:normal;font-size:10.58333302px;line-height:1.25;font-family:sans-serif;letter-spacing:0px;word-spacing:0px;fill:#ffffff;fill-opacity:1;stroke:none;stroke-width:0.26458332"
       aria-label="iot">
      <path
         id="path1563"
         style="font-style:normal;font-variant:normal;font-weight:normal;font-stretch:normal;font-size:6.3499999px;font-family:Sansation;-inkscape-font-specification:Sansation;fill:#ffffff;fill-opacity:1;stroke-width:0.26458332"
         d="m 4.9761159,289.33441 v 3.25562 H 4.4025075 v -3.25562 z m 0,-1.17822 v 0.5426 H 4.4025075 v -0.5426 z" />
      <path
         id="path1565"
         style="font-style:normal;font-variant:normal;font-weight:normal;font-stretch:normal;font-size:6.3499999px;font-family:Sansation;-inkscape-font-specification:Sansation;fill:#ffffff;fill-opacity:1;stroke-width:0.26458332"
         d="m 6.3837819,290.94982 q 0,1.17512 0.9766846,1.17512 0.9766845,0 0.9766845,-1.17512 0,-1.15032 -0.9766845,-1.15032 -0.9766846,0 -0.9766846,1.15032 z m -0.5736084,0.0124 q 0,-1.62781 1.550293,-1.62781 1.5502929,0 1.5502929,1.62781 0,1.62471 -1.5502929,1.62471 -1.5440918,0 -1.550293,-1.62471 z" />
      <path
         id="path1567"
         style="font-style:normal;font-variant:normal;font-weight:normal;font-stretch:normal;font-size:6.3499999px;font-family:Sansation;-inkscape-font-specification:Sansation;fill:#ffffff;fill-opacity:1;stroke-width:0.26458332"
         d="m 9.6859062,288.80731 h 0.3596678 l 0.124024,0.5271 h 0.880566 v 0.46509 h -0.790649 v 1.86965 q 0,0.45579 0.393774,0.45579 h 0.396875 v 0.46509 h -0.545703 q -0.8185548,0 -0.8185548,-0.87747 z" />
    </g>
  </g>
</svg>
